#!OML:ASF X:\für Bonn\!DataBase\2005_08_10_Bjorn_Final\c3d\bjorn.ASF
:FULLY-SPECIFIED
:DEGREES
93
root 0.876675 9.46905 3.93763 -186.662 1.93101 -177.161
lowerback 30.3231 -2.59746 7.00232
upperback 11.744 2.08277 -0.925554
thorax -3.15358 2.69884 -5.80533
lowerneck -27.7253 -0.937667 1.71006
upperneck 1.15812 -2.76428 -1.80961
head 4.48699 -1.95091 -1.19936
rclavicle -2.05742e-014 3.37934e-014
rhumerus 74.8508 0.393216 -59.4028
rradius 16.0543
rwrist 25.1748
rhand -15.8289 13.5625
rfingers 7.12502
rthumb 10.3652 -16.162
lclavicle -2.05742e-014 3.37934e-014
lhumerus 83.9124 -12.6039 44.8956
lradius 12.6058
lwrist -27.3326
lhand -12.9498 -6.23621
lfingers 7.12502
lthumb 13.1416 23.3297
rfemur -74.1448 -53.6652 4.69984
rtibia 142.584
rfoot -32.9106 51.9721
rtoes -21.9635
lfemur -74.4783 52.9705 -8.81786
ltibia 145.958
lfoot -33.4278 -32.2885
ltoes -27.0996
94
root 0.865911 9.62976 3.93899 -186.319 1.91677 -177.241
lowerback 30.042 -2.49581 6.88649
upperback 11.6022 2.0768 -0.959051
thorax -3.18964 2.6536 -5.76619
lowerneck -27.7216 -1.02224 1.59493
upperneck 1.34316 -2.82262 -1.68299
head 4.5481 -1.95943 -1.14811
rclavicle -1.36167e-014 2.04748e-014
rhumerus 74.8744 0.342326 -59.9196
rradius 15.8689
rwrist 25.9274
rhand -15.8344 13.4883
rfingers 7.12502
rthumb 10.3599 -16.2365
lclavicle -1.36167e-014 2.04748e-014
lhumerus 83.6987 -12.6647 45.0891
lradius 12.6504
lwrist -27.2356
lhand -12.4588 -6.24817
lfingers 7.12502
lthumb 13.6148 23.2866
rfemur -74.3337 -50.1022 6.17432
rtibia 141.503
rfoot -32.502 49.4352
rtoes -23.2002
lfemur -74.6047 48.6442 -10.049
ltibia 144.787
lfoot -32.0961 -30.9461
ltoes -27.0636
95
root 0.85577 9.79381 3.94063 -185.994 1.8955 -177.322
lowerback 29.791 -2.39402 6.79073
upperback 11.4428 2.07731 -1.0117
thorax -3.25578 2.61034 -5.76442
lowerneck -27.7087 -1.10122 1.54309
upperneck 1.56027 -2.88701 -1.57849
head 4.61747 -1.96952 -1.11467
rclavicle -1.67973e-014 1.59028e-014
rhumerus 74.8263 0.317447 -59.8958
rradius 15.7868
rwrist 26.2067
rhand -15.7324 13.2998
rfingers 7.12502
rthumb 10.4583 -16.42
lclavicle -1.67973e-014 1.59028e-014
lhumerus 83.4697 -12.7451 45.3645
lradius 12.7445
lwrist -27.1956
lhand -12.0746 -6.19954
lfingers 7.12502
lthumb 13.9851 23.3101
rfemur -74.2631 -46.7355 7.39246
rtibia 140.382
rfoot -32.2259 46.9562
rtoes -24.3997
lfemur -74.5029 44.55 -11.0407
ltibia 143.586
lfoot -30.9592 -29.5576
ltoes -27.1439
96
root 0.846568 9.9603 3.94279 -185.68 1.86358 -177.42
lowerback 29.5413 -2.29694 6.68795
upperback 11.2972 2.07635 -1.07755
thorax -3.30597 2.5706 -5.77215
lowerneck -27.8017 -1.20362 1.45152
upperneck 1.86147 -2.97307 -1.42669
head 4.72921 -1.98577 -1.0645
rclavicle 2.00773e-014 4.07509e-015
rhumerus 74.8474 0.223337 -60.1156
rradius 15.6357
rwrist 26.7892
rhand -15.5635 13.1282
rfingers 7.12502
rthumb 10.6213 -16.5834
lclavicle 2.00773e-014 4.07509e-015
lhumerus 83.7024 -12.7965 44.4471
lradius 12.5497
lwrist -26.0978
lhand -12.0646 -6.06145
lfingers 7.12502
lthumb 13.9948 23.4475
rfemur -74.0559 -43.5614 8.41053
rtibia 139.236
rfoot -31.8897 44.626
rtoes -25.2713
lfemur -74.2372 40.7166 -11.8877
ltibia 142.362
lfoot -30.1684 -28.0235
ltoes -27.4982
97
root 0.837502 10.1301 3.94434 -185.376 1.83228 -177.515
lowerback 29.2951 -2.19778 6.55933
upperback 11.1455 2.07218 -1.11571
thorax -3.36675 2.52674 -5.73325
lowerneck -27.8764 -1.31432 1.29312
upperneck 2.16652 -3.04797 -1.26663
head 4.84138 -1.9961 -0.999846
rclavicle -9.98893e-015 1.38155e-014
rhumerus 74.8304 0.235 -59.8389
rradius 15.5988
rwrist 26.9051
rhand -15.3051 12.8249
rfingers 7.12502
rthumb 10.8705 -16.8737
lclavicle -9.98893e-015 1.38155e-014
lhumerus 83.9044 -12.7971 43.5954
lradius 12.3382
lwrist -25.1045
lhand -12.23 -5.94082
lfingers 7.12502
lthumb 13.8353 23.579
rfemur -73.7124 -40.589 9.27821
rtibia 138.045
rfoot -31.1375 42.6316
rtoes -25.2389
lfemur -73.8507 37.175 -12.6119
ltibia 141.1
lfoot -29.5019 -26.5244
ltoes -27.864
98
root 0.828431 10.3024 3.94522 -185.061 1.81024 -177.631
lowerback 29.0172 -2.09677 6.42307
upperback 10.988 2.0613 -1.17935
thorax -3.4185 2.47892 -5.71483
lowerneck -27.9672 -1.40527 1.20009
upperneck 2.53787 -3.11071 -1.1234
head 4.97693 -1.99768 -0.950255
rclavicle 2.18663e-015 -1.59028e-014
rhumerus 74.8505 0.19849 -59.9678
rradius 15.4707
rwrist 27.3631
rhand -15.0935 12.6394
rfingers 7.12502
rthumb 11.0746 -17.0484
lclavicle 2.18663e-015 -1.59028e-014
lhumerus 83.9618 -12.785 43.2438
lradius 12.2069
lwrist -24.7539
lhand -12.4394 -5.77538
lfingers 7.12502
lthumb 13.6335 23.7581
rfemur -73.3077 -37.8483 9.99862
rtibia 136.838
rfoot -30.321 40.8689
rtoes -24.7872
lfemur -73.3849 33.9411 -13.288
ltibia 139.818
lfoot -29.084 -24.9668
ltoes -28.4802
99
root 0.819412 10.476 3.94494 -184.737 1.77945 -177.729
lowerback 28.671 -2.01761 6.33075
upperback 10.8562 2.03319 -1.27356
thorax -3.40807 2.43028 -5.74588
lowerneck -28.0658 -1.48392 1.16087
upperneck 2.87428 -3.18181 -0.980506
head 5.10181 -2.00477 -0.909916
rclavicle 1.39149e-014 -8.99501e-015
rhumerus 74.8946 0.134773 -60.1574
rradius 15.3588
rwrist 27.7985
rhand -14.8722 12.4531
rfingers 7.12502
rthumb 11.288 -17.2231
lclavicle 1.39149e-014 -8.99501e-015
lhumerus 83.8915 -12.7109 43.3302
lradius 12.1917
lwrist -25.0058
lhand -12.5863 -5.59836
lfingers 7.12502
lthumb 13.4919 23.9446
rfemur -72.8593 -35.3369 10.6658
rtibia 135.615
rfoot -29.9723 39.0068
rtoes -24.9045
lfemur -72.9026 31.0042 -13.8757
ltibia 138.524
lfoot -28.7304 -23.5009
ltoes -29.0793
100
root 0.811905 10.6486 3.94469 -184.413 1.74013 -177.843
lowerback 28.296 -1.90743 6.17105
upperback 10.7201 2.02666 -1.31118
thorax -3.39034 2.388 -5.67984
lowerneck -28.1151 -1.58884 1.00638
upperneck 3.21461 -3.24901 -0.800749
head 5.22402 -2.00691 -0.838473
rclavicle 2.36802e-014 -2.23633e-015
rhumerus 74.9217 0.08402 -60.2803
rradius 15.2576
rwrist 28.1603
rhand -14.6963 12.331
rfingers 7.12502
rthumb 11.4577 -17.3359
lclavicle 2.36802e-014 -2.23633e-015
lhumerus 83.7072 -12.6214 43.9402
lradius 12.1943
lwrist -25.7728
lhand -12.7299 -5.47509
lfingers 7.12502
lthumb 13.3536 24.077
rfemur -72.3832 -33.096 11.2316
rtibia 134.382
rfoot -29.9394 37.1732
rtoes -25.484
lfemur -72.3867 28.3638 -14.429
ltibia 137.22
lfoot -28.5024 -22.0912
ltoes -29.7409
101
root 0.803809 10.8283 3.94269 -184.079 1.6998 -177.956
lowerback 27.8788 -1.78819 6.01897
upperback 10.5908 2.03367 -1.34057
thorax -3.34221 2.35413 -5.61046
lowerneck -28.1766 -1.7146 0.844062
upperneck 3.58483 -3.33705 -0.648598
head 5.35767 -2.02062 -0.777787
rclavicle 5.09386e-015 4.32357e-015
rhumerus 74.943 0.00964001 -60.4315
rradius 15.1714
rwrist 28.4451
rhand -14.5809 12.2305
rfingers 7.12502
rthumb 11.5689 -17.4302
lclavicle 5.09386e-015 4.32357e-015
lhumerus 83.4735 -12.5251 44.7922
lradius 12.2511
lwrist -26.7519
lhand -12.7894 -5.36212
lfingers 7.12502
lthumb 13.2962 24.1937
rfemur -71.8487 -30.9984 11.737
rtibia 133.099
rfoot -29.9721 35.398
rtoes -26.0861
lfemur -71.8268 25.872 -14.9433
ltibia 135.86
lfoot -28.2605 -20.7208
ltoes -30.2204
102
root 0.796056 11.016 3.93946 -183.756 1.67197 -178.038
lowerback 27.4638 -1.6841 5.89752
upperback 10.4585 2.0307 -1.37471
thorax -3.29702 2.31622 -5.56137
lowerneck -28.1652 -1.8214 0.705414
upperneck 3.89583 -3.41131 -0.490067
head 5.46248 -2.028 -0.715426
rclavicle -5.54112e-015 -1.6847e-014
rhumerus 74.9982 -0.114087 -61.133
rradius 15.0097
rwrist 29.2573
rhand -14.5802 12.2586
rfingers 7.12502
rthumb 11.5696 -17.402
lclavicle -5.54112e-015 -1.6847e-014
lhumerus 83.2185 -12.3881 45.758
lradius 12.2967
lwrist -27.8396
lhand -12.7616 -5.29352
lfingers 7.12502
lthumb 13.323 24.2606
rfemur -71.2114 -28.9362 12.2289
rtibia 131.72
rfoot -30.0649 33.6385
rtoes -26.7403
lfemur -71.1526 23.6297 -15.3524
ltibia 134.425
lfoot -28.0177 -19.5272
ltoes -30.397
103
root 0.788068 11.2122 3.93573 -183.434 1.62346 -178.116
lowerback 27.0332 -1.59029 5.79719
upperback 10.336 2.02406 -1.40852
thorax -3.23208 2.27973 -5.52185
lowerneck -28.2005 -1.93371 0.566763
upperneck 4.27311 -3.49197 -0.319226
head 5.59617 -2.03531 -0.651068
rclavicle -1.758e-014 1.05356e-014
rhumerus 75.05 -0.239585 -61.6676
rradius 14.8781
rwrist 29.7815
rhand -14.6458 12.3319
rfingers 7.12502
rthumb 11.5063 -17.3323
lclavicle -1.758e-014 1.05356e-014
lhumerus 82.9679 -12.2305 46.7309
lradius 12.4075
lwrist -28.9042
lhand -12.6032 -5.24009
lfingers 7.12502
lthumb 13.4757 24.304
rfemur -70.4933 -27.0066 12.6772
rtibia 130.244
rfoot -30.1067 31.9619
rtoes -27.3573
lfemur -70.4327 21.4943 -15.7451
ltibia 132.91
lfoot -27.764 -18.3721
ltoes -30.4866
104
root 0.781004 11.4134 3.9294 -183.11 1.59822 -178.214
lowerback 26.5942 -1.4708 5.65522
upperback 10.2016 2.03782 -1.4372
thorax -3.17393 2.25006 -5.45836
lowerneck -28.2017 -2.03553 0.466825
upperneck 4.63529 -3.5675 -0.194755
head 5.71933 -2.04358 -0.6067
rclavicle -2.3146e-014 4.5969e-015
rhumerus 75.065 -0.328241 -61.9752
rradius 14.7849
rwrist 30.0582
rhand -14.7657 12.3356
rfingers 7.12502
rthumb 11.3908 -17.335
lclavicle -2.3146e-014 4.5969e-015
lhumerus 82.7285 -12.0811 47.6982
lradius 12.5082
lwrist -29.893
lhand -12.3748 -5.29331
lfingers 7.12502
lthumb 13.6958 24.236
rfemur -69.6979 -25.2037 13.0406
rtibia 128.685
rfoot -30.0204 30.5331
rtoes -27.4639
lfemur -69.6344 19.5753 -16.1258
ltibia 131.336
lfoot -27.5615 -17.2565
ltoes -30.494
